<svg xmlns="http://www.w3.org/2000/svg" xmlns:xlink="http://www.w3.org/1999/xlink" width="200" zoomAndPan="magnify" viewBox="100 140 170 100" height="200" preserveAspectRatio="xMidYMid meet" version="1.0"><defs><clipPath id="2a202a73b8"><path d="M 114 148.964844 L 260.921875 148.964844 L 260.921875 226 L 114 226 Z M 114 148.964844 " clip-rule="nonzero"/></clipPath></defs><g clip-path="url(#2a202a73b8)"><path fill="#ffffff" d="M 257.054688 148.914062 C 256.097656 148.9375 255.289062 149.296875 254.625 149.988281 L 187.421875 217.425781 L 120.214844 149.988281 C 119.53125 149.28125 118.699219 148.929688 117.71875 148.929688 C 117.375 148.929688 117.035156 148.980469 116.703125 149.082031 C 116.371094 149.183594 116.0625 149.332031 115.773438 149.523438 C 115.488281 149.71875 115.234375 149.953125 115.015625 150.222656 C 114.796875 150.492188 114.625 150.789062 114.492188 151.109375 C 114.363281 151.429688 114.28125 151.765625 114.25 152.113281 C 114.21875 152.457031 114.238281 152.800781 114.3125 153.140625 C 114.382812 153.480469 114.5 153.804688 114.667969 154.109375 C 114.835938 154.414062 115.042969 154.6875 115.289062 154.929688 L 184.957031 224.839844 C 185.285156 225.167969 185.660156 225.417969 186.089844 225.597656 C 186.515625 225.773438 186.960938 225.863281 187.421875 225.863281 C 187.882812 225.863281 188.328125 225.773438 188.753906 225.597656 C 189.179688 225.417969 189.558594 225.167969 189.882812 224.839844 L 259.550781 154.929688 C 259.804688 154.6875 260.015625 154.410156 260.1875 154.101562 C 260.355469 153.792969 260.476562 153.46875 260.546875 153.121094 C 260.621094 152.777344 260.636719 152.429688 260.605469 152.078125 C 260.570312 151.730469 260.488281 151.390625 260.351562 151.066406 C 260.21875 150.742188 260.039062 150.441406 259.8125 150.171875 C 259.589844 149.902344 259.328125 149.671875 259.035156 149.480469 C 258.742188 149.285156 258.425781 149.144531 258.085938 149.046875 C 257.75 148.949219 257.40625 148.90625 257.054688 148.914062 Z M 257.054688 148.914062 " fill-opacity="1" fill-rule="nonzero"/></g></svg>