<svg xmlns="http://www.w3.org/2000/svg" version="1.1" xmlns:xlink="http://www.w3.org/1999/xlink" xmlns:svgjs="http://svgjs.com/svgjs" width="320" height="320"><svg xmlns="http://www.w3.org/2000/svg" xmlns:xlink="http://www.w3.org/1999/xlink" width="320" zoomAndPan="magnify" viewBox="0 0 240 239.999995" height="320" preserveAspectRatio="xMidYMid meet" version="1.0"><defs><clipPath id="SvgjsClipPath1003"><path d="M 96 143 L 151 143 L 151 209.101562 L 96 209.101562 Z M 96 143 " clip-rule="nonzero"></path></clipPath><clipPath id="SvgjsClipPath1002"><path d="M 31.273438 87 L 89 87 L 89 149 L 31.273438 149 Z M 31.273438 87 " clip-rule="nonzero"></path></clipPath><clipPath id="SvgjsClipPath1001"><path d="M 153.730469 96.527344 L 208.921875 96.527344 L 208.921875 154.363281 L 153.730469 154.363281 Z M 153.730469 96.527344 " clip-rule="nonzero"></path></clipPath><clipPath id="SvgjsClipPath1000"><path d="M 93 30.601562 L 154 30.601562 L 154 91 L 93 91 Z M 93 30.601562 " clip-rule="nonzero"></path></clipPath></defs><rect x="-24" width="288" fill="#ffffff" y="-23.999999" height="287.999994" fill-opacity="1"></rect><rect x="-24" width="288" fill="#ffffff" y="-23.999999" height="287.999994" fill-opacity="1"></rect><g clip-path="url(#912913ea3d)"><path fill="#000000" d="M 123.394531 203.953125 C 117.988281 193.164062 110.214844 183.601562 100.71875 176.066406 C 110.21875 168.523438 117.988281 158.960938 123.394531 148.171875 C 128.800781 158.960938 136.570312 168.523438 146.066406 176.0625 C 136.570312 183.601562 128.800781 193.164062 123.394531 203.953125 Z M 124.808594 143.9375 C 124.558594 143.382812 124.003906 143.027344 123.394531 143.027344 C 122.785156 143.027344 122.230469 143.382812 121.980469 143.9375 C 116.496094 156.078125 107.945312 166.761719 97.257812 174.832031 C 96.871094 175.125 96.644531 175.578125 96.644531 176.0625 C 96.644531 176.546875 96.871094 177.003906 97.257812 177.292969 C 107.945312 185.367188 116.496094 196.050781 121.980469 208.191406 C 122.242188 208.765625 122.804688 209.101562 123.394531 209.101562 C 123.609375 209.101562 123.824219 209.058594 124.03125 208.964844 C 124.410156 208.796875 124.6875 208.492188 124.832031 208.132812 C 130.320312 196.015625 138.859375 185.351562 149.53125 177.292969 C 149.917969 177.003906 150.144531 176.546875 150.144531 176.0625 C 150.144531 175.578125 149.917969 175.125 149.53125 174.832031 C 138.84375 166.761719 130.292969 156.078125 124.808594 143.9375 " fill-opacity="1" fill-rule="nonzero"></path></g><g clip-path="url(#f3ac438bd9)"><path fill="#000000" d="M 35.414062 118.167969 C 35.433594 118.128906 35.453125 118.089844 35.46875 118.050781 C 36.886719 114.59375 50.621094 100.695312 60.167969 91.546875 C 69.714844 100.695312 83.453125 114.59375 84.871094 118.050781 C 84.886719 118.089844 84.902344 118.128906 84.921875 118.167969 C 85.558594 119.410156 85.867188 120.992188 85.867188 123.015625 C 85.867188 130.101562 80.078125 135.871094 72.96875 135.871094 C 69.609375 135.871094 66.429688 134.589844 64.015625 132.269531 C 63.53125 131.804688 62.804688 131.703125 62.210938 132.019531 C 61.617188 132.335938 61.296875 132.992188 61.414062 133.652344 L 61.449219 133.859375 C 62.136719 138.101562 64.132812 141.941406 67.222656 144.957031 C 67.277344 145.011719 67.332031 145.066406 67.390625 145.121094 L 52.945312 145.121094 C 53.003906 145.066406 53.058594 145.011719 53.117188 144.957031 C 56.203125 141.941406 58.199219 138.101562 58.882812 133.882812 L 58.925781 133.652344 C 59.042969 132.992188 58.71875 132.335938 58.128906 132.019531 C 57.535156 131.703125 56.804688 131.804688 56.324219 132.269531 C 53.90625 134.589844 50.726562 135.871094 47.371094 135.871094 C 40.257812 135.871094 34.472656 130.101562 34.472656 123.015625 C 34.472656 120.992188 34.777344 119.410156 35.414062 118.167969 Z M 47.371094 138.960938 C 49.972656 138.960938 52.492188 138.339844 54.746094 137.171875 C 53.878906 139.25 52.59375 141.140625 50.945312 142.75 C 49.921875 143.753906 48.78125 144.621094 47.550781 145.328125 C 46.941406 145.679688 46.648438 146.390625 46.828125 147.066406 C 47.011719 147.742188 47.625 148.210938 48.324219 148.210938 L 72.011719 148.210938 C 72.710938 148.210938 73.324219 147.742188 73.507812 147.066406 C 73.691406 146.390625 73.394531 145.679688 72.789062 145.328125 C 71.558594 144.621094 70.414062 143.753906 69.390625 142.75 C 67.742188 141.140625 66.460938 139.253906 65.59375 137.171875 C 67.847656 138.339844 70.363281 138.960938 72.96875 138.960938 C 81.789062 138.960938 88.964844 131.808594 88.964844 123.015625 C 88.964844 120.523438 88.554688 118.492188 87.710938 116.816406 C 85.375 111.371094 63.710938 90.644531 61.238281 88.292969 C 60.640625 87.71875 59.695312 87.71875 59.097656 88.292969 C 56.625 90.644531 34.960938 111.371094 32.625 116.816406 C 31.78125 118.492188 31.371094 120.523438 31.371094 123.015625 C 31.371094 131.808594 38.546875 138.960938 47.371094 138.960938 " fill-opacity="1" fill-rule="nonzero"></path></g><g clip-path="url(#b1d81d0e09)"><path fill="#000000" d="M 185.253906 103.921875 C 187.5 101.347656 190.429688 99.929688 193.503906 99.929688 C 200.140625 99.929688 205.539062 106.496094 205.539062 114.5625 C 205.539062 116.898438 205.238281 118.742188 204.617188 120.1875 C 204.601562 120.226562 204.585938 120.261719 204.574219 120.304688 C 203.230469 124.203125 190.402344 139.707031 181.34375 150.078125 C 172.285156 139.707031 159.460938 124.203125 158.117188 120.304688 C 158.105469 120.261719 158.089844 120.226562 158.074219 120.1875 C 157.453125 118.742188 157.152344 116.902344 157.152344 114.5625 C 157.152344 106.496094 162.550781 99.929688 169.1875 99.929688 C 172.261719 99.929688 175.191406 101.347656 177.4375 103.921875 C 177.457031 103.949219 177.484375 103.976562 177.511719 104 C 177.527344 104.015625 179.164062 105.6875 179.734375 107.449219 C 179.949219 108.113281 180.554688 108.578125 181.253906 108.617188 C 181.949219 108.664062 182.605469 108.257812 182.890625 107.621094 C 183.578125 106.09375 184.191406 105.128906 185.25 103.925781 C 185.25 103.925781 185.253906 103.921875 185.253906 103.921875 Z M 182.703125 101.703125 C 182.175781 102.300781 181.746094 102.855469 181.375 103.394531 C 180.726562 102.484375 180.128906 101.84375 179.960938 101.671875 C 177.066406 98.371094 173.242188 96.558594 169.1875 96.558594 C 160.683594 96.558594 153.769531 104.632812 153.769531 114.5625 C 153.769531 117.339844 154.148438 119.597656 154.9375 121.460938 C 157.128906 127.585938 177.722656 151.085938 180.074219 153.753906 C 180.394531 154.117188 180.859375 154.328125 181.34375 154.328125 C 181.832031 154.328125 182.296875 154.117188 182.617188 153.753906 C 184.96875 151.085938 205.5625 127.582031 207.753906 121.457031 C 208.539062 119.59375 208.921875 117.335938 208.921875 114.5625 C 208.921875 104.632812 202.007812 96.558594 193.503906 96.558594 C 189.433594 96.558594 185.597656 98.382812 182.703125 101.703125 " fill-opacity="1" fill-rule="nonzero"></path></g><g clip-path="url(#b04c2ee67d)"><path fill="#000000" d="M 109.128906 55.765625 C 110.09375 55.765625 111.050781 55.875 111.976562 56.09375 L 112.378906 56.257812 C 113.042969 56.53125 113.800781 56.3125 114.21875 55.734375 C 114.640625 55.15625 114.609375 54.371094 114.148438 53.828125 C 112.265625 51.625 111.230469 48.8125 111.230469 45.914062 C 111.230469 39.175781 116.734375 33.691406 123.496094 33.691406 C 130.257812 33.691406 135.761719 39.175781 135.761719 45.914062 C 135.761719 48.574219 134.902344 51.351562 133.464844 53.347656 C 133.09375 53.863281 133.078125 54.558594 133.429688 55.09375 C 133.78125 55.628906 134.425781 55.894531 135.050781 55.757812 C 135.90625 55.574219 136.78125 55.480469 137.660156 55.480469 C 144.421875 55.480469 149.925781 60.964844 149.925781 67.707031 C 149.925781 74.445312 144.421875 79.929688 137.660156 79.929688 C 133.566406 79.929688 129.570312 77.605469 127.238281 73.867188 C 126.867188 73.273438 126.144531 73.003906 125.476562 73.199219 C 124.808594 73.398438 124.355469 74.023438 124.371094 74.71875 C 124.488281 79.699219 126.519531 84.363281 130.089844 87.855469 C 130.09375 87.855469 130.09375 87.859375 130.097656 87.863281 L 116.96875 87.863281 C 116.96875 87.859375 116.972656 87.855469 116.976562 87.855469 C 120.585938 84.324219 122.636719 79.660156 122.753906 74.71875 C 122.769531 74.007812 122.296875 73.378906 121.609375 73.191406 C 120.925781 73 120.195312 73.308594 119.851562 73.929688 C 117.683594 77.808594 113.574219 80.210938 109.128906 80.210938 C 102.363281 80.210938 96.863281 74.730469 96.863281 67.988281 C 96.863281 61.25 102.363281 55.765625 109.128906 55.765625 Z M 109.128906 83.304688 C 112.589844 83.304688 115.886719 82.140625 118.535156 80.09375 C 117.714844 82.148438 116.453125 84.035156 114.804688 85.648438 C 113.839844 86.589844 112.765625 87.40625 111.613281 88.070312 C 111.007812 88.417969 110.710938 89.132812 110.894531 89.808594 C 111.074219 90.484375 111.6875 90.953125 112.390625 90.953125 L 134.675781 90.953125 C 135.375 90.953125 135.992188 90.484375 136.171875 89.808594 C 136.355469 89.132812 136.058594 88.421875 135.453125 88.070312 C 134.300781 87.40625 133.226562 86.589844 132.261719 85.648438 C 130.535156 83.964844 129.242188 81.953125 128.433594 79.753906 C 131.101562 81.832031 134.347656 83.019531 137.660156 83.019531 C 146.132812 83.019531 153.023438 76.148438 153.023438 67.707031 C 153.023438 59.261719 146.132812 52.390625 137.660156 52.390625 C 137.617188 52.390625 137.574219 52.390625 137.53125 52.394531 C 138.390625 50.390625 138.863281 48.144531 138.863281 45.914062 C 138.863281 37.472656 131.96875 30.601562 123.496094 30.601562 C 115.023438 30.601562 108.128906 37.472656 108.128906 45.914062 C 108.128906 48.277344 108.679688 50.59375 109.714844 52.6875 C 109.519531 52.679688 109.324219 52.675781 109.128906 52.675781 C 100.65625 52.675781 93.761719 59.546875 93.761719 67.988281 C 93.761719 76.433594 100.65625 83.304688 109.128906 83.304688 " fill-opacity="1" fill-rule="nonzero"></path></g><path fill="#000000" d="M 121.203125 121.183594 L 56.816406 185.355469 C 56.207031 185.957031 56.207031 186.933594 56.816406 187.539062 C 57.117188 187.839844 57.515625 187.992188 57.910156 187.992188 C 58.308594 187.992188 58.703125 187.839844 59.007812 187.539062 L 123.394531 123.367188 L 187.78125 187.539062 C 188.085938 187.839844 188.480469 187.992188 188.878906 187.992188 C 189.273438 187.992188 189.671875 187.839844 189.972656 187.539062 C 190.578125 186.933594 190.578125 185.957031 189.972656 185.355469 L 125.585938 121.183594 L 189.972656 57.011719 C 190.578125 56.40625 190.578125 55.429688 189.972656 54.824219 C 189.367188 54.222656 188.386719 54.222656 187.78125 54.824219 L 123.394531 118.996094 L 59.007812 54.824219 C 58.402344 54.222656 57.421875 54.222656 56.816406 54.824219 C 56.207031 55.429688 56.207031 56.40625 56.816406 57.011719 L 121.203125 121.183594 " fill-opacity="1" fill-rule="nonzero"></path></svg><style>@media (prefers-color-scheme: light) { :root { filter: none; } }
@media (prefers-color-scheme: dark) { :root { filter: none; } }
</style></svg>