<svg xmlns="http://www.w3.org/2000/svg" xmlns:xlink="http://www.w3.org/1999/xlink" width="500" zoomAndPan="magnify" viewBox="30 110 310 160" height="300" preserveAspectRatio="xMidYMid meet" version="1.0"><defs><g/><clipPath id="3a57407857"><path d="M 92 214 L 138 214 L 138 269.675781 L 92 269.675781 Z M 92 214 " clip-rule="nonzero"/></clipPath><clipPath id="e04e77d25c"><path d="M 37.5 167 L 86 167 L 86 219 L 37.5 219 Z M 37.5 167 " clip-rule="nonzero"/></clipPath><clipPath id="8b2a11701a"><path d="M 140.324219 175.074219 L 186.664062 175.074219 L 186.664062 223.675781 L 140.324219 223.675781 Z M 140.324219 175.074219 " clip-rule="nonzero"/></clipPath><clipPath id="18ce76eb0c"><path d="M 89 119.675781 L 140 119.675781 L 140 171 L 89 171 Z M 89 119.675781 " clip-rule="nonzero"/></clipPath></defs><g clip-path="url(#3a57407857)"><path fill="#ffffff" d="M 114.851562 265.347656 C 110.3125 256.28125 103.785156 248.246094 95.8125 241.914062 C 103.789062 235.578125 110.3125 227.539062 114.851562 218.476562 C 119.390625 227.539062 125.914062 235.574219 133.890625 241.914062 C 125.914062 248.25 119.390625 256.285156 114.851562 265.347656 Z M 116.039062 214.914062 C 115.828125 214.449219 115.363281 214.148438 114.851562 214.148438 C 114.339844 214.148438 113.875 214.449219 113.664062 214.914062 C 109.058594 225.117188 101.882812 234.097656 92.90625 240.878906 C 92.582031 241.121094 92.390625 241.503906 92.390625 241.914062 C 92.390625 242.320312 92.582031 242.703125 92.90625 242.945312 C 101.882812 249.730469 109.058594 258.707031 113.664062 268.910156 C 113.882812 269.390625 114.355469 269.675781 114.851562 269.675781 C 115.03125 269.675781 115.214844 269.640625 115.386719 269.5625 C 115.707031 269.417969 115.9375 269.164062 116.058594 268.863281 C 120.667969 258.679688 127.835938 249.71875 136.796875 242.945312 C 137.121094 242.703125 137.3125 242.320312 137.3125 241.914062 C 137.3125 241.503906 137.121094 241.121094 136.796875 240.878906 C 127.820312 234.09375 120.644531 225.117188 116.039062 214.914062 " fill-opacity="1" fill-rule="nonzero"/></g><g clip-path="url(#e04e77d25c)"><path fill="#ffffff" d="M 40.980469 193.257812 C 40.996094 193.226562 41.011719 193.195312 41.023438 193.160156 C 42.214844 190.257812 53.75 178.578125 61.765625 170.890625 C 69.78125 178.578125 81.3125 190.257812 82.503906 193.160156 C 82.519531 193.195312 82.53125 193.226562 82.550781 193.257812 C 83.082031 194.300781 83.339844 195.636719 83.339844 197.332031 C 83.339844 203.289062 78.484375 208.136719 72.511719 208.136719 C 69.691406 208.136719 67.023438 207.0625 64.996094 205.109375 C 64.589844 204.71875 63.976562 204.636719 63.480469 204.898438 C 62.980469 205.164062 62.710938 205.71875 62.808594 206.273438 L 62.839844 206.445312 C 63.417969 210.011719 65.09375 213.238281 67.6875 215.773438 C 67.734375 215.820312 67.78125 215.863281 67.828125 215.910156 L 55.703125 215.910156 C 55.75 215.863281 55.796875 215.820312 55.84375 215.773438 C 58.4375 213.238281 60.113281 210.011719 60.6875 206.464844 L 60.71875 206.273438 C 60.820312 205.71875 60.550781 205.164062 60.050781 204.898438 C 59.550781 204.632812 58.941406 204.71875 58.535156 205.109375 C 56.507812 207.0625 53.839844 208.136719 51.019531 208.136719 C 45.046875 208.136719 40.1875 203.289062 40.1875 197.332031 C 40.1875 195.636719 40.449219 194.300781 40.980469 193.257812 Z M 51.019531 210.734375 C 53.203125 210.734375 55.320312 210.210938 57.210938 209.230469 C 56.484375 210.976562 55.40625 212.5625 54.019531 213.917969 C 53.164062 214.761719 52.203125 215.488281 51.167969 216.085938 C 50.660156 216.378906 50.414062 216.976562 50.566406 217.542969 C 50.71875 218.113281 51.234375 218.507812 51.820312 218.507812 L 71.707031 218.507812 C 72.296875 218.507812 72.8125 218.113281 72.964844 217.542969 C 73.117188 216.976562 72.871094 216.378906 72.359375 216.085938 C 71.328125 215.488281 70.367188 214.761719 69.507812 213.917969 C 68.125 212.566406 67.050781 210.980469 66.320312 209.230469 C 68.210938 210.210938 70.324219 210.734375 72.511719 210.734375 C 79.917969 210.734375 85.945312 204.722656 85.945312 197.332031 C 85.945312 195.238281 85.597656 193.53125 84.890625 192.125 C 82.929688 187.550781 64.738281 170.132812 62.664062 168.152344 C 62.160156 167.671875 61.367188 167.671875 60.867188 168.152344 C 58.789062 170.132812 40.601562 187.550781 38.636719 192.125 C 37.929688 193.53125 37.585938 195.238281 37.585938 197.332031 C 37.585938 204.722656 43.613281 210.734375 51.019531 210.734375 " fill-opacity="1" fill-rule="nonzero"/></g><g clip-path="url(#8b2a11701a)"><path fill="#ffffff" d="M 166.792969 181.289062 C 168.675781 179.125 171.136719 177.933594 173.71875 177.933594 C 179.289062 177.933594 183.820312 183.449219 183.820312 190.230469 C 183.820312 192.195312 183.570312 193.742188 183.046875 194.957031 C 183.035156 194.988281 183.023438 195.019531 183.011719 195.054688 C 181.886719 198.332031 171.113281 211.359375 163.507812 220.074219 C 155.902344 211.359375 145.132812 198.332031 144.007812 195.054688 C 143.996094 195.019531 143.984375 194.988281 143.96875 194.957031 C 143.449219 193.742188 143.195312 192.195312 143.195312 190.230469 C 143.195312 183.449219 147.730469 177.933594 153.300781 177.933594 C 155.882812 177.933594 158.34375 179.125 160.226562 181.289062 C 160.246094 181.3125 160.265625 181.332031 160.289062 181.355469 C 160.300781 181.367188 161.675781 182.773438 162.15625 184.253906 C 162.339844 184.8125 162.847656 185.203125 163.433594 185.234375 C 164.015625 185.273438 164.566406 184.929688 164.804688 184.394531 C 165.382812 183.113281 165.898438 182.304688 166.789062 181.292969 C 166.789062 181.292969 166.789062 181.289062 166.792969 181.289062 Z M 164.648438 179.425781 C 164.207031 179.925781 163.84375 180.394531 163.53125 180.847656 C 162.992188 180.082031 162.484375 179.542969 162.34375 179.398438 C 159.917969 176.625 156.707031 175.101562 153.300781 175.101562 C 146.160156 175.101562 140.355469 181.886719 140.355469 190.230469 C 140.355469 192.5625 140.675781 194.460938 141.335938 196.027344 C 143.175781 201.171875 160.46875 220.921875 162.441406 223.164062 C 162.710938 223.472656 163.101562 223.648438 163.507812 223.648438 C 163.917969 223.648438 164.308594 223.472656 164.578125 223.164062 C 166.550781 220.921875 183.84375 201.171875 185.683594 196.023438 C 186.34375 194.460938 186.664062 192.5625 186.664062 190.230469 C 186.664062 181.886719 180.855469 175.101562 173.71875 175.101562 C 170.300781 175.101562 167.082031 176.636719 164.648438 179.425781 " fill-opacity="1" fill-rule="nonzero"/></g><g clip-path="url(#18ce76eb0c)"><path fill="#ffffff" d="M 102.871094 140.820312 C 103.683594 140.820312 104.488281 140.914062 105.265625 141.097656 L 105.605469 141.234375 C 106.160156 141.464844 106.796875 141.28125 107.148438 140.796875 C 107.5 140.308594 107.476562 139.648438 107.085938 139.191406 C 105.507812 137.339844 104.636719 134.980469 104.636719 132.542969 C 104.636719 126.878906 109.257812 122.273438 114.9375 122.273438 C 120.613281 122.273438 125.234375 126.878906 125.234375 132.542969 C 125.234375 134.777344 124.515625 137.113281 123.308594 138.789062 C 122.996094 139.222656 122.980469 139.808594 123.277344 140.257812 C 123.570312 140.707031 124.113281 140.929688 124.640625 140.816406 C 125.355469 140.660156 126.09375 140.582031 126.828125 140.582031 C 132.507812 140.582031 137.128906 145.191406 137.128906 150.855469 C 137.128906 156.519531 132.507812 161.128906 126.828125 161.128906 C 123.390625 161.128906 120.039062 159.175781 118.078125 156.03125 C 117.769531 155.535156 117.160156 155.304688 116.601562 155.472656 C 116.039062 155.640625 115.65625 156.164062 115.671875 156.746094 C 115.769531 160.933594 117.476562 164.855469 120.472656 167.785156 C 120.476562 167.789062 120.476562 167.789062 120.480469 167.792969 L 109.457031 167.792969 C 109.457031 167.789062 109.460938 167.789062 109.464844 167.785156 C 112.492188 164.820312 114.214844 160.902344 114.3125 156.75 C 114.328125 156.152344 113.929688 155.625 113.355469 155.464844 C 112.777344 155.304688 112.167969 155.566406 111.875 156.085938 C 110.054688 159.34375 106.605469 161.367188 102.871094 161.367188 C 97.195312 161.367188 92.574219 156.757812 92.574219 151.09375 C 92.574219 145.429688 97.195312 140.820312 102.871094 140.820312 Z M 102.871094 163.960938 C 105.777344 163.960938 108.546875 162.984375 110.773438 161.265625 C 110.082031 162.992188 109.023438 164.578125 107.640625 165.933594 C 106.828125 166.722656 105.929688 167.410156 104.960938 167.96875 C 104.449219 168.261719 104.203125 168.859375 104.355469 169.425781 C 104.507812 169.996094 105.023438 170.390625 105.613281 170.390625 L 124.324219 170.390625 C 124.910156 170.390625 125.425781 169.996094 125.578125 169.425781 C 125.730469 168.859375 125.484375 168.261719 124.976562 167.96875 C 124.007812 167.410156 123.105469 166.722656 122.296875 165.933594 C 120.847656 164.515625 119.761719 162.828125 119.082031 160.980469 C 121.324219 162.726562 124.050781 163.726562 126.828125 163.726562 C 133.941406 163.726562 139.730469 157.953125 139.730469 150.855469 C 139.730469 143.757812 133.941406 137.988281 126.828125 137.988281 C 126.792969 137.988281 126.757812 137.988281 126.722656 137.988281 C 127.441406 136.304688 127.839844 134.417969 127.839844 132.542969 C 127.839844 125.449219 122.050781 119.675781 114.9375 119.675781 C 107.824219 119.675781 102.035156 125.449219 102.035156 132.542969 C 102.035156 134.527344 102.496094 136.476562 103.363281 138.234375 C 103.199219 138.226562 103.035156 138.226562 102.871094 138.226562 C 95.757812 138.226562 89.972656 143.996094 89.972656 151.09375 C 89.972656 158.191406 95.757812 163.960938 102.871094 163.960938 " fill-opacity="1" fill-rule="nonzero"/></g><path fill="#ffffff" d="M 113.011719 195.792969 L 58.949219 249.71875 C 58.441406 250.226562 58.441406 251.046875 58.949219 251.554688 C 59.203125 251.808594 59.535156 251.933594 59.867188 251.933594 C 60.203125 251.933594 60.535156 251.808594 60.789062 251.554688 L 114.851562 197.628906 L 168.914062 251.554688 C 169.167969 251.808594 169.5 251.933594 169.832031 251.933594 C 170.164062 251.933594 170.5 251.808594 170.753906 251.554688 C 171.261719 251.046875 171.261719 250.226562 170.753906 249.71875 L 116.691406 195.792969 L 170.753906 141.867188 C 171.261719 141.359375 171.261719 140.539062 170.753906 140.03125 C 170.246094 139.523438 169.421875 139.523438 168.914062 140.03125 L 114.851562 193.957031 L 60.789062 140.03125 C 60.28125 139.523438 59.457031 139.523438 58.949219 140.03125 C 58.441406 140.539062 58.441406 141.359375 58.949219 141.867188 L 113.011719 195.792969 " fill-opacity="1" fill-rule="nonzero"/><g fill="#ffffff" fill-opacity="1"><g transform="translate(202.372352, 187.792956)"><g><path d="M 19.234375 0 L 15.125 0 L 12.203125 -10.859375 L 9.25 0 L 5.109375 0 L -0.015625 -15.703125 L 4.234375 -15.703125 L 7.3125 -4.15625 L 10.328125 -15.703125 L 14.21875 -15.703125 L 17.296875 -4.15625 L 20.328125 -15.703125 L 24.40625 -15.703125 Z M 19.234375 0 "/></g></g></g><g fill="#ffffff" fill-opacity="1"><g transform="translate(231.06153, 187.792956)"><g><path d="M 13.859375 -12.5625 L 5.5625 -12.5625 L 5.5625 -9.453125 L 13.0625 -9.453125 L 13.0625 -6.3125 L 5.5625 -6.3125 L 5.5625 -3.140625 L 14.109375 -3.140625 L 14.109375 0 L 1.578125 0 L 1.578125 -15.703125 L 13.859375 -15.703125 Z M 13.859375 -12.5625 "/></g></g></g><g fill="#ffffff" fill-opacity="1"><g transform="translate(250.621825, 187.792956)"><g><path d="M 1.578125 -15.703125 L 9 -15.703125 C 10.757812 -15.703125 12.160156 -15.347656 13.203125 -14.640625 C 14.242188 -13.929688 14.765625 -12.976562 14.765625 -11.78125 C 14.765625 -10.957031 14.523438 -10.234375 14.046875 -9.609375 C 13.566406 -8.992188 12.910156 -8.566406 12.078125 -8.328125 C 13.054688 -8.128906 13.835938 -7.671875 14.421875 -6.953125 C 15.003906 -6.234375 15.296875 -5.367188 15.296875 -4.359375 C 15.296875 -3.023438 14.753906 -1.960938 13.671875 -1.171875 C 12.585938 -0.390625 11.117188 0 9.265625 0 L 1.578125 0 Z M 5.546875 -12.65625 L 5.546875 -9.421875 L 8.765625 -9.421875 C 9.347656 -9.421875 9.8125 -9.566406 10.15625 -9.859375 C 10.507812 -10.148438 10.6875 -10.550781 10.6875 -11.0625 C 10.6875 -11.550781 10.507812 -11.9375 10.15625 -12.21875 C 9.8125 -12.507812 9.347656 -12.65625 8.765625 -12.65625 Z M 5.546875 -6.546875 L 5.546875 -3.078125 L 8.765625 -3.078125 C 9.515625 -3.078125 10.101562 -3.234375 10.53125 -3.546875 C 10.957031 -3.859375 11.171875 -4.289062 11.171875 -4.84375 C 11.171875 -5.363281 10.957031 -5.773438 10.53125 -6.078125 C 10.101562 -6.390625 9.515625 -6.546875 8.765625 -6.546875 Z M 5.546875 -6.546875 "/></g></g></g><g fill="#ffffff" fill-opacity="1"><g transform="translate(271.101729, 187.792956)"><g/></g></g><g fill="#ffffff" fill-opacity="1"><g transform="translate(280.748102, 187.792956)"><g><path d="M 12 -2.890625 L 5.140625 -2.890625 L 4 0 L -0.109375 0 L 6.65625 -15.703125 L 10.765625 -15.703125 L 17.390625 0 L 13.125 0 Z M 10.84375 -5.921875 L 8.59375 -11.734375 L 6.3125 -5.921875 Z M 10.84375 -5.921875 "/></g></g></g><g fill="#ffffff" fill-opacity="1"><g transform="translate(302.461652, 187.792956)"><g><path d="M 8.9375 -15.84375 C 10.101562 -15.84375 11.25 -15.601562 12.375 -15.125 C 13.5 -14.644531 14.457031 -14 15.25 -13.1875 L 12.953125 -10.453125 C 12.441406 -11.078125 11.828125 -11.570312 11.109375 -11.9375 C 10.398438 -12.3125 9.695312 -12.5 9 -12.5 C 7.757812 -12.5 6.71875 -12.0625 5.875 -11.1875 C 5.039062 -10.3125 4.625 -9.226562 4.625 -7.9375 C 4.625 -6.625 5.039062 -5.523438 5.875 -4.640625 C 6.71875 -3.765625 7.757812 -3.328125 9 -3.328125 C 9.65625 -3.328125 10.335938 -3.488281 11.046875 -3.8125 C 11.753906 -4.144531 12.390625 -4.59375 12.953125 -5.15625 L 15.28125 -2.6875 C 14.425781 -1.820312 13.414062 -1.128906 12.25 -0.609375 C 11.09375 -0.0859375 9.941406 0.171875 8.796875 0.171875 C 6.429688 0.171875 4.460938 -0.59375 2.890625 -2.125 C 1.316406 -3.664062 0.53125 -5.585938 0.53125 -7.890625 C 0.53125 -10.148438 1.332031 -12.039062 2.9375 -13.5625 C 4.539062 -15.082031 6.539062 -15.84375 8.9375 -15.84375 Z M 8.9375 -15.84375 "/></g></g></g><g fill="#ffffff" fill-opacity="1"><g transform="translate(322.425685, 187.792956)"><g><path d="M 13.859375 -12.5625 L 5.5625 -12.5625 L 5.5625 -9.453125 L 13.0625 -9.453125 L 13.0625 -6.3125 L 5.5625 -6.3125 L 5.5625 -3.140625 L 14.109375 -3.140625 L 14.109375 0 L 1.578125 0 L 1.578125 -15.703125 L 13.859375 -15.703125 Z M 13.859375 -12.5625 "/></g></g></g><g fill="#ffffff" fill-opacity="1"><g transform="translate(236.555944, 218.542954)"><g><path d="M 12 -7.984375 L 15.453125 -7.984375 L 15.453125 -1.859375 C 14.609375 -1.265625 13.582031 -0.773438 12.375 -0.390625 C 11.164062 -0.015625 10.019531 0.171875 8.9375 0.171875 C 6.539062 0.171875 4.539062 -0.59375 2.9375 -2.125 C 1.332031 -3.65625 0.53125 -5.566406 0.53125 -7.859375 C 0.53125 -10.128906 1.351562 -12.023438 3 -13.546875 C 4.644531 -15.078125 6.710938 -15.84375 9.203125 -15.84375 C 10.367188 -15.84375 11.523438 -15.628906 12.671875 -15.203125 C 13.828125 -14.785156 14.804688 -14.21875 15.609375 -13.5 L 13.375 -10.796875 C 12.800781 -11.316406 12.140625 -11.726562 11.390625 -12.03125 C 10.648438 -12.34375 9.910156 -12.5 9.171875 -12.5 C 7.890625 -12.5 6.8125 -12.050781 5.9375 -11.15625 C 5.0625 -10.269531 4.625 -9.171875 4.625 -7.859375 C 4.625 -6.523438 5.0625 -5.40625 5.9375 -4.5 C 6.820312 -3.601562 7.914062 -3.15625 9.21875 -3.15625 C 10.0625 -3.15625 10.988281 -3.410156 12 -3.921875 Z M 12 -7.984375 "/></g></g></g><g fill="#ffffff" fill-opacity="1"><g transform="translate(257.663891, 218.542954)"><g><path d="M 11.046875 0 L 8.703125 -4.421875 L 5.5625 -4.421875 L 5.5625 0 L 1.578125 0 L 1.578125 -15.703125 L 8.59375 -15.703125 C 10.675781 -15.703125 12.285156 -15.226562 13.421875 -14.28125 C 14.554688 -13.332031 15.125 -11.984375 15.125 -10.234375 C 15.125 -7.804688 14.171875 -6.125 12.265625 -5.1875 L 15.578125 0 Z M 5.5625 -7.5625 L 8.59375 -7.5625 C 9.457031 -7.5625 10.128906 -7.773438 10.609375 -8.203125 C 11.085938 -8.640625 11.328125 -9.269531 11.328125 -10.09375 C 11.328125 -10.90625 11.085938 -11.519531 10.609375 -11.9375 C 10.128906 -12.351562 9.457031 -12.5625 8.59375 -12.5625 L 5.5625 -12.5625 Z M 5.5625 -7.5625 "/></g></g></g><g fill="#ffffff" fill-opacity="1"><g transform="translate(278.345673, 218.542954)"><g><path d="M 9.015625 -15.84375 C 11.453125 -15.84375 13.476562 -15.082031 15.09375 -13.5625 C 16.71875 -12.039062 17.53125 -10.144531 17.53125 -7.875 C 17.53125 -5.582031 16.71875 -3.664062 15.09375 -2.125 C 13.46875 -0.59375 11.441406 0.171875 9.015625 0.171875 C 6.597656 0.171875 4.578125 -0.59375 2.953125 -2.125 C 1.335938 -3.65625 0.53125 -5.570312 0.53125 -7.875 C 0.53125 -10.164062 1.335938 -12.066406 2.953125 -13.578125 C 4.578125 -15.085938 6.597656 -15.84375 9.015625 -15.84375 Z M 9.0625 -12.5 C 7.832031 -12.5 6.785156 -12.050781 5.921875 -11.15625 C 5.054688 -10.269531 4.625 -9.164062 4.625 -7.84375 C 4.625 -6.53125 5.0625 -5.421875 5.9375 -4.515625 C 6.8125 -3.609375 7.851562 -3.15625 9.0625 -3.15625 C 10.269531 -3.15625 11.296875 -3.609375 12.140625 -4.515625 C 12.992188 -5.421875 13.421875 -6.53125 13.421875 -7.84375 C 13.421875 -9.164062 12.992188 -10.269531 12.140625 -11.15625 C 11.296875 -12.050781 10.269531 -12.5 9.0625 -12.5 Z M 9.0625 -12.5 "/></g></g></g><g fill="#ffffff" fill-opacity="1"><g transform="translate(300.844258, 218.542954)"><g><path d="M 15.703125 -15.703125 L 15.703125 -6.59375 C 15.703125 -4.519531 15.054688 -2.875 13.765625 -1.65625 C 12.484375 -0.4375 10.742188 0.171875 8.546875 0.171875 C 6.335938 0.171875 4.578125 -0.4375 3.265625 -1.65625 C 1.953125 -2.875 1.296875 -4.519531 1.296875 -6.59375 L 1.296875 -15.703125 L 5.296875 -15.703125 L 5.296875 -6.59375 C 5.296875 -5.550781 5.597656 -4.71875 6.203125 -4.09375 C 6.804688 -3.46875 7.597656 -3.15625 8.578125 -3.15625 C 9.523438 -3.15625 10.285156 -3.460938 10.859375 -4.078125 C 11.441406 -4.691406 11.734375 -5.53125 11.734375 -6.59375 L 11.734375 -15.703125 Z M 15.703125 -15.703125 "/></g></g></g><g fill="#ffffff" fill-opacity="1"><g transform="translate(322.288653, 218.542954)"><g><path d="M 1.578125 -15.703125 L 8.421875 -15.703125 C 10.421875 -15.703125 11.972656 -15.226562 13.078125 -14.28125 C 14.179688 -13.332031 14.734375 -11.984375 14.734375 -10.234375 C 14.734375 -8.390625 14.179688 -6.957031 13.078125 -5.9375 C 11.972656 -4.925781 10.421875 -4.421875 8.421875 -4.421875 L 5.5625 -4.421875 L 5.5625 0 L 1.578125 0 Z M 5.5625 -12.5625 L 5.5625 -7.5625 L 8.21875 -7.5625 C 9.09375 -7.5625 9.769531 -7.773438 10.25 -8.203125 C 10.726562 -8.640625 10.96875 -9.269531 10.96875 -10.09375 C 10.96875 -10.90625 10.726562 -11.519531 10.25 -11.9375 C 9.769531 -12.351562 9.09375 -12.5625 8.21875 -12.5625 Z M 5.5625 -12.5625 "/></g></g></g></svg>